<svg xmlns="http://www.w3.org/2000/svg" width="1254" height="1254" viewBox="0 0 1254 1254" fill="none">
<path d="M 655 780 L 653 782 L 653 786 L 654 787 L 655 787 L 656 788 L 663 788 L 664 789 L 672 789 L 673 790 L 679 790 L 680 791 L 686 791 L 687 792 L 692 792 L 693 793 L 697 793 L 698 794 L 702 794 L 703 795 L 708 795 L 709 796 L 712 796 L 713 797 L 717 797 L 718 798 L 721 798 L 722 799 L 725 799 L 726 800 L 729 800 L 730 801 L 732 801 L 733 802 L 736 802 L 737 803 L 739 803 L 740 804 L 743 804 L 744 805 L 746 805 L 747 806 L 749 806 L 750 807 L 752 807 L 753 808 L 754 808 L 755 809 L 757 809 L 758 810 L 760 810 L 761 811 L 762 811 L 763 812 L 765 812 L 766 813 L 767 813 L 768 814 L 769 814 L 770 815 L 771 815 L 772 816 L 773 816 L 774 817 L 775 817 L 776 818 L 777 818 L 778 819 L 779 819 L 780 820 L 781 820 L 782 821 L 783 821 L 784 822 L 785 822 L 787 824 L 788 824 L 790 826 L 791 826 L 794 829 L 795 829 L 801 835 L 802 835 L 804 837 L 804 838 L 807 841 L 807 842 L 809 844 L 809 845 L 811 847 L 811 848 L 812 849 L 812 850 L 813 851 L 813 852 L 814 853 L 814 856 L 815 857 L 815 867 L 814 868 L 814 871 L 813 872 L 813 873 L 812 874 L 812 876 L 811 877 L 811 878 L 809 880 L 809 881 L 804 886 L 804 887 L 801 890 L 800 890 L 794 896 L 793 896 L 791 898 L 790 898 L 788 900 L 787 900 L 785 902 L 784 902 L 782 904 L 781 904 L 780 905 L 779 905 L 778 906 L 777 906 L 775 908 L 774 908 L 773 909 L 772 909 L 771 910 L 770 910 L 769 911 L 768 911 L 767 912 L 766 912 L 765 913 L 763 913 L 762 914 L 761 914 L 760 915 L 759 915 L 758 916 L 756 916 L 755 917 L 754 917 L 753 918 L 751 918 L 750 919 L 748 919 L 747 920 L 746 920 L 745 921 L 743 921 L 742 922 L 740 922 L 739 923 L 737 923 L 736 924 L 734 924 L 733 925 L 731 925 L 730 926 L 728 926 L 727 927 L 725 927 L 724 928 L 721 928 L 720 929 L 718 929 L 717 930 L 714 930 L 713 931 L 710 931 L 709 932 L 706 932 L 705 933 L 701 933 L 700 934 L 697 934 L 696 935 L 692 935 L 691 936 L 688 936 L 687 937 L 683 937 L 682 938 L 678 938 L 677 939 L 673 939 L 672 940 L 667 940 L 666 941 L 660 941 L 659 942 L 654 942 L 653 943 L 647 943 L 646 944 L 639 944 L 638 945 L 635 945 L 634 944 L 633 944 L 632 943 L 631 943 L 630 942 L 628 942 L 627 941 L 625 941 L 624 940 L 623 940 L 622 939 L 621 939 L 620 938 L 619 938 L 618 937 L 616 937 L 615 936 L 614 936 L 613 935 L 612 935 L 611 934 L 610 934 L 609 933 L 607 933 L 606 932 L 605 932 L 604 931 L 602 931 L 601 930 L 600 930 L 599 931 L 598 931 L 598 932 L 597 933 L 597 936 L 599 938 L 600 938 L 601 939 L 603 939 L 604 940 L 605 940 L 606 941 L 607 941 L 608 942 L 609 942 L 610 943 L 611 943 L 612 944 L 613 944 L 614 945 L 616 945 L 617 946 L 616 947 L 609 947 L 608 948 L 599 948 L 598 949 L 584 949 L 583 950 L 557 950 L 556 951 L 513 951 L 512 950 L 489 950 L 488 949 L 472 949 L 471 948 L 459 948 L 458 947 L 448 947 L 447 946 L 439 946 L 438 945 L 432 945 L 431 944 L 425 944 L 424 943 L 417 943 L 416 942 L 410 942 L 409 941 L 405 941 L 404 940 L 399 940 L 398 939 L 393 939 L 392 938 L 388 938 L 387 937 L 384 937 L 383 936 L 379 936 L 378 935 L 375 935 L 374 934 L 371 934 L 370 933 L 366 933 L 365 932 L 362 932 L 361 931 L 358 931 L 357 930 L 354 930 L 353 929 L 351 929 L 350 928 L 348 928 L 347 927 L 344 927 L 343 926 L 341 926 L 340 925 L 338 925 L 337 924 L 335 924 L 334 923 L 332 923 L 331 922 L 329 922 L 328 921 L 326 921 L 325 920 L 323 920 L 322 919 L 321 919 L 320 918 L 318 918 L 317 917 L 316 917 L 315 916 L 314 916 L 313 915 L 311 915 L 310 914 L 309 914 L 308 913 L 307 913 L 306 912 L 305 912 L 304 911 L 303 911 L 302 910 L 301 910 L 300 909 L 299 909 L 298 908 L 297 908 L 296 907 L 295 907 L 294 906 L 293 906 L 292 905 L 291 905 L 289 903 L 288 903 L 286 901 L 285 901 L 283 899 L 282 899 L 280 897 L 279 897 L 276 894 L 275 894 L 266 885 L 266 884 L 262 880 L 262 879 L 261 878 L 261 877 L 260 876 L 260 875 L 259 874 L 259 873 L 258 872 L 258 870 L 257 869 L 257 865 L 256 864 L 256 860 L 257 859 L 257 855 L 258 854 L 258 852 L 259 851 L 259 850 L 260 849 L 260 848 L 261 847 L 261 846 L 263 844 L 263 843 L 266 840 L 266 839 L 270 835 L 271 835 L 276 830 L 277 830 L 279 828 L 280 828 L 282 826 L 283 826 L 285 824 L 286 824 L 287 823 L 288 823 L 290 821 L 291 821 L 292 820 L 294 820 L 295 819 L 296 819 L 297 818 L 298 818 L 299 817 L 300 817 L 301 816 L 302 816 L 303 815 L 305 815 L 306 816 L 306 817 L 304 819 L 304 820 L 301 823 L 301 824 L 299 826 L 299 827 L 298 828 L 298 831 L 300 833 L 304 833 L 306 831 L 306 830 L 309 827 L 309 826 L 312 823 L 312 822 L 315 819 L 315 818 L 319 814 L 319 813 L 322 810 L 322 809 L 324 807 L 326 807 L 327 806 L 330 806 L 331 805 L 333 805 L 335 803 L 335 800 L 332 797 L 331 797 L 330 798 L 328 798 L 327 799 L 325 799 L 324 800 L 322 800 L 321 801 L 319 801 L 318 800 L 303 800 L 302 799 L 284 799 L 283 800 L 282 800 L 281 801 L 281 805 L 282 806 L 283 806 L 284 807 L 299 807 L 300 808 L 299 809 L 297 809 L 296 810 L 295 810 L 294 811 L 293 811 L 292 812 L 291 812 L 290 813 L 289 813 L 288 814 L 287 814 L 286 815 L 285 815 L 283 817 L 282 817 L 281 818 L 280 818 L 279 819 L 278 819 L 276 821 L 275 821 L 271 825 L 270 825 L 258 837 L 258 838 L 256 840 L 256 841 L 254 843 L 254 844 L 253 845 L 253 846 L 252 847 L 252 849 L 251 850 L 251 852 L 250 853 L 250 856 L 249 857 L 249 867 L 250 868 L 250 872 L 251 873 L 251 875 L 252 876 L 252 877 L 253 878 L 253 879 L 254 880 L 254 881 L 255 882 L 255 883 L 257 885 L 257 886 L 260 889 L 260 890 L 269 899 L 270 899 L 273 902 L 274 902 L 278 906 L 279 906 L 281 908 L 282 908 L 283 909 L 284 909 L 286 911 L 287 911 L 288 912 L 289 912 L 291 914 L 292 914 L 293 915 L 294 915 L 295 916 L 296 916 L 297 917 L 298 917 L 299 918 L 300 918 L 301 919 L 302 919 L 303 920 L 304 920 L 305 921 L 307 921 L 308 922 L 309 922 L 310 923 L 311 923 L 312 924 L 314 924 L 315 925 L 316 925 L 317 926 L 319 926 L 320 927 L 322 927 L 323 928 L 324 928 L 325 929 L 327 929 L 328 930 L 329 930 L 330 931 L 332 931 L 333 932 L 335 932 L 336 933 L 339 933 L 340 934 L 342 934 L 343 935 L 345 935 L 346 936 L 349 936 L 350 937 L 352 937 L 353 938 L 356 938 L 357 939 L 359 939 L 360 940 L 363 940 L 364 941 L 368 941 L 369 942 L 372 942 L 373 943 L 377 943 L 378 944 L 382 944 L 383 945 L 387 945 L 388 946 L 391 946 L 392 947 L 397 947 L 398 948 L 404 948 L 405 949 L 409 949 L 410 950 L 415 950 L 416 951 L 422 951 L 423 952 L 431 952 L 432 953 L 439 953 L 440 954 L 448 954 L 449 955 L 458 955 L 459 956 L 471 956 L 472 957 L 484 957 L 485 958 L 508 958 L 509 959 L 559 959 L 560 958 L 582 958 L 583 957 L 600 957 L 601 956 L 613 956 L 614 955 L 617 955 L 618 956 L 617 957 L 616 957 L 615 958 L 614 958 L 611 961 L 610 961 L 608 963 L 607 963 L 606 964 L 605 964 L 603 966 L 602 966 L 601 967 L 601 968 L 600 969 L 600 971 L 601 972 L 601 973 L 602 973 L 603 974 L 605 974 L 606 973 L 607 973 L 609 971 L 610 971 L 611 970 L 612 970 L 614 968 L 615 968 L 617 966 L 618 966 L 620 964 L 621 964 L 622 963 L 623 963 L 625 961 L 626 961 L 629 958 L 630 958 L 632 956 L 633 956 L 635 954 L 636 954 L 638 952 L 645 952 L 646 951 L 652 951 L 653 950 L 659 950 L 660 949 L 666 949 L 667 948 L 672 948 L 673 947 L 678 947 L 679 946 L 683 946 L 684 945 L 688 945 L 689 944 L 693 944 L 694 943 L 697 943 L 698 942 L 701 942 L 702 941 L 705 941 L 706 940 L 709 940 L 710 939 L 713 939 L 714 938 L 717 938 L 718 937 L 720 937 L 721 936 L 724 936 L 725 935 L 727 935 L 728 934 L 730 934 L 731 933 L 734 933 L 735 932 L 737 932 L 738 931 L 740 931 L 741 930 L 743 930 L 744 929 L 746 929 L 747 928 L 749 928 L 750 927 L 751 927 L 752 926 L 754 926 L 755 925 L 757 925 L 758 924 L 759 924 L 760 923 L 761 923 L 762 922 L 764 922 L 765 921 L 766 921 L 767 920 L 768 920 L 769 919 L 770 919 L 771 918 L 772 918 L 773 917 L 774 917 L 775 916 L 776 916 L 777 915 L 778 915 L 779 914 L 780 914 L 781 913 L 782 913 L 784 911 L 785 911 L 786 910 L 787 910 L 788 909 L 789 909 L 791 907 L 792 907 L 794 905 L 795 905 L 798 902 L 799 902 L 813 888 L 813 887 L 815 885 L 815 884 L 817 882 L 817 881 L 818 880 L 818 879 L 819 878 L 819 877 L 820 876 L 820 874 L 821 873 L 821 870 L 822 869 L 822 854 L 821 853 L 821 851 L 820 850 L 820 848 L 819 847 L 819 846 L 818 845 L 818 844 L 817 843 L 817 842 L 815 840 L 815 839 L 811 835 L 811 834 L 802 825 L 801 825 L 798 822 L 797 822 L 795 820 L 794 820 L 792 818 L 791 818 L 789 816 L 788 816 L 786 814 L 785 814 L 783 812 L 782 812 L 781 811 L 780 811 L 779 810 L 778 810 L 777 809 L 775 809 L 774 808 L 773 808 L 772 807 L 771 807 L 770 806 L 769 806 L 768 805 L 767 805 L 766 804 L 764 804 L 763 803 L 762 803 L 761 802 L 758 802 L 757 801 L 756 801 L 755 800 L 753 800 L 752 799 L 750 799 L 749 798 L 748 798 L 747 797 L 744 797 L 743 796 L 740 796 L 739 795 L 737 795 L 736 794 L 733 794 L 732 793 L 729 793 L 728 792 L 725 792 L 724 791 L 722 791 L 721 790 L 717 790 L 716 789 L 713 789 L 712 788 L 709 788 L 708 787 L 704 787 L 703 786 L 698 786 L 697 785 L 692 785 L 691 784 L 686 784 L 685 783 L 680 783 L 679 782 L 673 782 L 672 781 L 663 781 L 662 780 Z M 305 815 L 306 814 L 307 815 L 306 816 Z M 814 718 L 814 720 L 815 721 L 815 722 L 816 723 L 818 723 L 817 723 L 816 722 L 816 721 L 814 719 Z M 348 705 L 347 706 L 346 706 L 344 708 L 343 708 L 340 711 L 340 712 L 336 716 L 336 717 L 334 719 L 334 720 L 333 721 L 333 722 L 332 723 L 332 724 L 331 725 L 331 727 L 330 728 L 330 729 L 329 730 L 329 732 L 328 733 L 328 735 L 327 736 L 327 740 L 326 741 L 326 746 L 327 747 L 327 748 L 328 748 L 329 749 L 330 748 L 331 748 L 332 747 L 332 741 L 333 740 L 333 737 L 334 736 L 334 734 L 335 733 L 335 731 L 336 730 L 336 729 L 337 728 L 337 727 L 338 726 L 339 727 L 338 726 L 338 725 L 339 724 L 339 723 L 340 722 L 340 721 L 343 718 L 343 717 L 351 709 L 351 708 L 350 707 L 350 706 L 349 706 Z M 337 689 L 336 690 L 335 690 L 334 691 L 333 691 L 330 694 L 329 694 L 328 695 L 328 696 L 322 702 L 322 703 L 320 705 L 320 706 L 318 708 L 318 709 L 317 710 L 317 711 L 316 712 L 316 713 L 315 714 L 315 715 L 314 716 L 314 717 L 313 718 L 313 720 L 312 721 L 312 722 L 311 723 L 311 725 L 310 726 L 310 728 L 309 729 L 309 732 L 308 733 L 308 737 L 307 738 L 307 748 L 309 750 L 311 750 L 312 749 L 312 748 L 313 747 L 313 738 L 314 737 L 314 734 L 315 733 L 315 730 L 316 729 L 316 727 L 317 726 L 317 724 L 318 723 L 318 722 L 319 721 L 319 720 L 320 719 L 320 718 L 321 717 L 321 715 L 323 713 L 323 712 L 324 711 L 324 710 L 326 708 L 326 707 L 329 704 L 329 703 L 336 696 L 337 696 L 339 694 L 339 693 L 340 692 L 339 691 L 339 690 L 338 690 Z M 900 688 L 899 689 L 893 689 L 899 689 L 900 690 L 901 689 L 901 688 Z M 899 689 L 900 688 L 901 689 L 900 690 Z M 898 679 L 897 680 L 894 680 L 899 680 Z M 965 602 L 964 603 L 963 603 L 960 606 L 960 608 L 959 609 L 959 624 L 958 625 L 944 625 L 943 626 L 942 626 L 942 627 L 941 628 L 941 629 L 940 630 L 940 641 L 939 642 L 939 661 L 940 662 L 940 663 L 941 664 L 942 664 L 943 665 L 946 665 L 947 666 L 956 666 L 957 667 L 957 671 L 956 672 L 956 695 L 955 696 L 955 713 L 954 714 L 954 737 L 953 738 L 953 755 L 952 756 L 952 776 L 951 777 L 951 783 L 950 784 L 947 784 L 946 785 L 941 785 L 940 786 L 937 786 L 936 787 L 933 787 L 932 788 L 930 788 L 929 789 L 928 789 L 927 790 L 927 794 L 929 796 L 931 796 L 932 795 L 934 795 L 935 794 L 938 794 L 939 793 L 943 793 L 944 792 L 951 792 L 952 791 L 972 791 L 973 792 L 981 792 L 982 793 L 987 793 L 988 794 L 992 794 L 993 795 L 996 795 L 997 796 L 999 796 L 1000 797 L 1001 797 L 1002 798 L 1004 798 L 1007 795 L 1007 793 L 1006 792 L 1006 791 L 1005 791 L 1004 790 L 1003 790 L 1002 789 L 1000 789 L 999 788 L 997 788 L 996 787 L 992 787 L 991 786 L 988 786 L 987 785 L 980 785 L 979 784 L 975 784 L 974 783 L 974 776 L 975 775 L 975 756 L 976 755 L 976 733 L 977 732 L 977 722 L 978 721 L 979 722 L 1005 722 L 1006 723 L 1025 723 L 1026 722 L 1027 722 L 1044 705 L 1044 701 L 1042 699 L 1042 698 L 1041 697 L 1040 697 L 1028 685 L 1027 685 L 1026 684 L 1014 684 L 1013 683 L 994 683 L 993 682 L 980 682 L 979 681 L 979 669 L 980 668 L 981 669 L 992 669 L 993 670 L 1002 670 L 1003 671 L 1010 671 L 1013 668 L 1014 668 L 1017 665 L 1018 665 L 1024 659 L 1025 659 L 1029 655 L 1029 654 L 1030 653 L 1030 650 L 1027 647 L 1027 646 L 1021 640 L 1021 639 L 1016 634 L 1016 633 L 1014 631 L 1013 631 L 1012 630 L 1007 630 L 1006 629 L 997 629 L 996 628 L 985 628 L 984 627 L 982 627 L 981 626 L 981 617 L 982 616 L 982 608 L 981 607 L 981 606 L 978 603 L 974 603 L 973 602 Z M 978 690 L 979 689 L 983 689 L 984 690 L 1008 690 L 1009 691 L 1024 691 L 1036 703 L 1024 715 L 1023 715 L 1022 716 L 1016 716 L 1015 715 L 989 715 L 988 714 L 978 714 L 977 713 L 977 707 L 978 706 Z M 964 668 L 965 667 L 968 667 L 969 668 L 971 668 L 972 669 L 972 683 L 971 684 L 971 704 L 970 705 L 970 726 L 969 727 L 969 745 L 968 746 L 968 768 L 967 769 L 967 782 L 966 783 L 960 783 L 959 782 L 959 762 L 960 761 L 960 745 L 961 744 L 961 723 L 962 722 L 962 701 L 963 700 L 963 680 L 964 679 Z M 947 632 L 948 631 L 949 632 L 959 632 L 960 633 L 969 633 L 970 634 L 981 634 L 982 635 L 992 635 L 993 636 L 1004 636 L 1005 637 L 1010 637 L 1011 638 L 1011 639 L 1017 645 L 1017 646 L 1021 650 L 1021 651 L 1022 652 L 1021 653 L 1020 653 L 1016 657 L 1015 657 L 1010 662 L 1009 662 L 1007 664 L 1006 663 L 995 663 L 994 662 L 985 662 L 984 661 L 975 661 L 974 660 L 961 660 L 960 659 L 950 659 L 949 658 L 947 658 L 946 657 L 946 642 L 947 641 Z M 966 611 L 967 610 L 974 610 L 975 611 L 975 616 L 974 617 L 974 626 L 973 627 L 972 626 L 967 626 L 966 625 L 966 613 L 967 612 Z M 745 515 L 743 517 L 743 519 L 745 521 L 746 521 L 747 522 L 751 522 L 752 523 L 755 523 L 756 524 L 758 524 L 759 525 L 762 525 L 763 526 L 766 526 L 767 527 L 770 527 L 771 528 L 774 528 L 775 529 L 780 529 L 782 527 L 782 526 L 781 525 L 781 524 L 780 524 L 779 523 L 776 523 L 775 522 L 772 522 L 771 521 L 769 521 L 768 520 L 764 520 L 763 519 L 760 519 L 759 518 L 756 518 L 755 517 L 752 517 L 751 516 L 748 516 L 747 515 Z M 712 497 L 709 500 L 709 503 L 708 504 L 708 507 L 707 508 L 707 511 L 706 512 L 706 515 L 705 516 L 705 521 L 707 523 L 709 523 L 710 524 L 713 524 L 714 525 L 718 525 L 719 526 L 722 526 L 723 527 L 729 527 L 730 526 L 730 525 L 731 524 L 731 520 L 732 519 L 732 516 L 733 515 L 733 512 L 734 511 L 734 508 L 735 507 L 735 504 L 733 502 L 732 502 L 731 501 L 727 501 L 726 500 L 723 500 L 722 499 L 719 499 L 718 498 L 714 498 L 713 497 Z M 715 503 L 717 503 L 718 504 L 721 504 L 722 505 L 725 505 L 726 506 L 728 506 L 729 507 L 729 510 L 728 511 L 728 514 L 727 515 L 727 518 L 726 519 L 726 521 L 725 522 L 724 521 L 720 521 L 719 520 L 715 520 L 714 519 L 712 519 L 710 517 L 711 516 L 711 513 L 712 512 L 712 509 L 713 508 L 713 505 Z M 755 476 L 753 478 L 753 480 L 755 482 L 757 482 L 758 483 L 761 483 L 762 484 L 765 484 L 766 485 L 769 485 L 770 486 L 773 486 L 774 487 L 777 487 L 778 488 L 781 488 L 782 489 L 785 489 L 786 490 L 791 490 L 791 489 L 792 488 L 792 486 L 790 484 L 788 484 L 787 483 L 784 483 L 783 482 L 779 482 L 778 481 L 775 481 L 774 480 L 771 480 L 770 479 L 767 479 L 766 478 L 763 478 L 762 477 L 759 477 L 758 476 Z M 720 459 L 719 460 L 719 461 L 718 462 L 718 464 L 717 465 L 717 469 L 716 470 L 716 474 L 715 475 L 715 478 L 714 479 L 714 481 L 717 484 L 719 484 L 720 485 L 724 485 L 725 486 L 728 486 L 729 487 L 732 487 L 733 488 L 738 488 L 739 487 L 739 486 L 740 485 L 740 482 L 741 481 L 741 478 L 742 477 L 742 474 L 743 473 L 743 470 L 747 466 L 748 466 L 751 463 L 751 461 L 750 460 L 747 460 L 746 461 L 745 461 L 742 464 L 741 463 L 740 463 L 739 462 L 736 462 L 735 461 L 732 461 L 731 460 L 727 460 L 726 459 Z M 723 465 L 724 464 L 725 465 L 729 465 L 730 466 L 733 466 L 734 467 L 735 467 L 736 468 L 735 469 L 734 469 L 732 471 L 731 471 L 730 472 L 729 471 L 729 470 L 728 469 L 725 469 L 724 470 L 724 473 L 725 474 L 725 475 L 726 476 L 726 477 L 728 479 L 730 479 L 733 476 L 734 476 L 736 474 L 737 475 L 737 477 L 736 478 L 736 480 L 735 481 L 735 482 L 734 483 L 733 482 L 730 482 L 729 481 L 725 481 L 724 480 L 721 480 L 720 479 L 720 476 L 721 475 L 721 472 L 722 471 L 722 468 L 723 467 Z M 582 450 L 581 451 L 579 451 L 578 452 L 577 452 L 576 453 L 575 453 L 572 456 L 572 457 L 571 458 L 571 460 L 573 462 L 574 462 L 578 458 L 579 458 L 580 457 L 581 457 L 582 456 L 587 456 L 588 457 L 589 457 L 590 458 L 593 458 L 594 457 L 594 454 L 592 452 L 591 452 L 590 451 L 588 451 L 587 450 Z M 764 435 L 762 437 L 762 439 L 764 441 L 765 441 L 766 442 L 769 442 L 770 443 L 773 443 L 774 444 L 777 444 L 778 445 L 781 445 L 782 446 L 785 446 L 786 447 L 788 447 L 789 448 L 792 448 L 793 449 L 796 449 L 797 450 L 799 450 L 801 448 L 801 445 L 800 444 L 799 444 L 798 443 L 795 443 L 794 442 L 791 442 L 790 441 L 786 441 L 785 440 L 783 440 L 782 439 L 778 439 L 777 438 L 775 438 L 774 437 L 771 437 L 770 436 L 767 436 L 766 435 Z M 438 428 L 437 429 L 436 429 L 431 434 L 431 435 L 429 437 L 429 439 L 428 440 L 428 443 L 427 444 L 428 445 L 428 447 L 431 450 L 435 450 L 436 449 L 437 449 L 441 445 L 441 442 L 439 440 L 438 440 L 435 443 L 434 442 L 434 440 L 435 439 L 435 438 L 442 431 L 442 429 L 441 428 Z M 433 443 L 434 442 L 435 443 L 434 444 Z M 509 424 L 508 425 L 507 425 L 507 429 L 511 429 L 512 430 L 512 431 L 515 434 L 517 434 L 518 433 L 518 431 L 515 428 L 515 427 L 513 425 L 512 425 L 511 424 Z M 730 419 L 728 421 L 728 424 L 727 425 L 727 428 L 726 429 L 726 432 L 725 433 L 725 437 L 724 438 L 724 441 L 726 443 L 727 443 L 728 444 L 731 444 L 732 445 L 736 445 L 737 446 L 740 446 L 741 447 L 743 447 L 744 448 L 746 448 L 747 447 L 748 447 L 749 446 L 749 444 L 750 443 L 750 440 L 751 439 L 751 436 L 752 435 L 752 432 L 753 431 L 753 428 L 754 427 L 755 427 L 760 422 L 760 420 L 759 419 L 756 419 L 753 422 L 752 422 L 751 423 L 749 423 L 748 422 L 745 422 L 744 421 L 741 421 L 740 420 L 737 420 L 736 419 Z M 745 434 L 746 435 L 746 438 L 745 439 L 745 441 L 744 442 L 742 442 L 741 441 L 738 441 L 737 440 L 738 439 L 739 439 L 740 438 L 741 438 L 741 437 L 742 436 L 743 436 Z M 745 434 L 746 433 L 747 434 L 746 435 Z M 731 430 L 732 429 L 733 430 L 733 431 L 734 432 L 734 433 L 735 434 L 735 435 L 736 436 L 736 437 L 738 439 L 737 440 L 734 440 L 733 439 L 731 439 L 730 438 L 730 436 L 731 435 Z M 734 424 L 735 424 L 736 425 L 739 425 L 740 426 L 743 426 L 745 428 L 744 429 L 743 429 L 740 432 L 738 430 L 738 429 L 737 429 L 736 428 L 735 429 L 734 429 L 733 430 L 732 429 L 732 426 Z M 595 418 L 594 419 L 592 419 L 592 423 L 593 424 L 593 426 L 595 428 L 595 429 L 598 432 L 598 434 L 596 436 L 595 436 L 593 438 L 593 439 L 595 441 L 598 441 L 600 439 L 601 439 L 601 438 L 603 436 L 603 431 L 602 430 L 602 429 L 600 427 L 600 426 L 599 425 L 599 424 L 597 422 L 597 420 Z M 570 412 L 567 415 L 567 422 L 570 425 L 573 425 L 575 423 L 575 415 L 574 414 L 574 413 L 573 412 Z M 427 412 L 426 413 L 424 413 L 423 414 L 422 414 L 420 416 L 419 416 L 412 423 L 412 424 L 411 425 L 411 426 L 410 427 L 410 432 L 411 433 L 411 434 L 412 435 L 413 435 L 414 436 L 418 436 L 419 435 L 420 435 L 421 434 L 422 434 L 425 431 L 426 431 L 426 428 L 424 426 L 423 426 L 421 428 L 420 428 L 418 430 L 416 430 L 415 429 L 416 428 L 416 427 L 419 424 L 419 423 L 420 422 L 421 422 L 424 419 L 425 419 L 426 418 L 428 418 L 429 417 L 430 417 L 431 416 L 431 414 L 429 412 Z M 606 408 L 604 410 L 604 411 L 603 412 L 603 417 L 604 418 L 604 419 L 605 420 L 605 421 L 606 421 L 607 422 L 609 422 L 610 421 L 610 420 L 611 419 L 611 417 L 612 416 L 612 415 L 611 414 L 611 411 L 610 410 L 610 409 L 609 409 L 608 408 Z M 571 390 L 569 392 L 569 393 L 567 395 L 566 395 L 565 396 L 564 396 L 563 397 L 562 397 L 561 398 L 558 398 L 556 400 L 556 401 L 558 403 L 562 403 L 563 402 L 565 402 L 566 401 L 568 401 L 570 399 L 571 399 L 574 396 L 574 395 L 575 394 L 575 392 L 573 390 Z M 599 388 L 598 389 L 598 390 L 597 391 L 601 395 L 603 395 L 604 396 L 607 396 L 608 397 L 609 397 L 610 398 L 611 397 L 612 397 L 613 396 L 613 393 L 612 392 L 608 392 L 607 391 L 605 391 L 604 390 L 603 390 L 601 388 Z M 586 305 L 585 306 L 583 306 L 582 307 L 581 307 L 579 309 L 578 309 L 575 312 L 575 313 L 573 315 L 573 316 L 572 317 L 572 318 L 571 319 L 571 322 L 570 323 L 570 327 L 569 328 L 568 327 L 565 327 L 564 326 L 559 326 L 558 325 L 546 325 L 545 326 L 540 326 L 539 327 L 536 327 L 535 328 L 532 328 L 531 329 L 529 329 L 528 330 L 526 330 L 525 331 L 524 331 L 523 332 L 522 332 L 521 333 L 520 333 L 519 334 L 518 334 L 517 335 L 516 335 L 514 337 L 513 337 L 511 339 L 510 339 L 507 342 L 506 342 L 498 350 L 498 351 L 497 352 L 496 351 L 496 350 L 495 349 L 495 348 L 494 347 L 494 346 L 491 343 L 491 342 L 488 339 L 487 339 L 486 338 L 485 338 L 484 337 L 483 337 L 482 336 L 481 336 L 480 335 L 477 335 L 476 334 L 466 334 L 465 335 L 463 335 L 462 336 L 461 336 L 460 337 L 459 337 L 457 339 L 456 339 L 453 342 L 452 342 L 450 344 L 450 345 L 448 347 L 448 348 L 447 349 L 447 350 L 445 352 L 444 352 L 443 353 L 443 354 L 441 356 L 441 357 L 439 359 L 439 361 L 438 362 L 438 364 L 437 365 L 437 377 L 438 378 L 438 379 L 439 380 L 439 382 L 441 384 L 441 385 L 453 397 L 454 397 L 455 398 L 456 398 L 457 399 L 460 399 L 461 400 L 467 400 L 468 399 L 471 399 L 472 400 L 471 399 L 472 398 L 473 398 L 474 399 L 474 401 L 473 402 L 473 404 L 472 405 L 472 411 L 471 412 L 471 421 L 472 422 L 472 426 L 473 427 L 473 430 L 474 431 L 474 433 L 475 434 L 475 435 L 476 436 L 476 438 L 477 439 L 477 440 L 479 442 L 479 443 L 481 445 L 481 446 L 486 451 L 486 452 L 490 456 L 490 457 L 491 458 L 492 458 L 495 461 L 496 461 L 497 462 L 498 462 L 499 463 L 500 463 L 501 464 L 504 464 L 505 465 L 509 465 L 510 466 L 513 466 L 514 467 L 513 468 L 512 468 L 510 470 L 510 471 L 511 472 L 512 472 L 513 473 L 514 473 L 515 472 L 517 472 L 519 470 L 520 470 L 522 468 L 528 474 L 529 474 L 530 475 L 530 478 L 529 479 L 529 484 L 528 485 L 528 486 L 527 487 L 504 487 L 503 488 L 498 488 L 497 489 L 493 489 L 492 490 L 489 490 L 488 491 L 485 491 L 484 492 L 482 492 L 481 493 L 479 493 L 478 494 L 476 494 L 475 495 L 473 495 L 472 496 L 471 496 L 470 497 L 468 497 L 467 498 L 466 498 L 465 499 L 463 499 L 462 500 L 461 500 L 460 501 L 458 501 L 457 502 L 456 502 L 455 503 L 454 503 L 453 504 L 452 504 L 451 505 L 450 505 L 449 506 L 448 506 L 447 507 L 446 507 L 445 508 L 444 508 L 443 509 L 442 509 L 441 510 L 440 510 L 439 511 L 438 511 L 437 512 L 436 512 L 434 514 L 433 514 L 432 515 L 431 515 L 430 516 L 429 516 L 427 518 L 426 518 L 424 520 L 423 520 L 421 522 L 420 522 L 418 524 L 417 524 L 412 529 L 411 529 L 410 530 L 410 531 L 406 535 L 406 536 L 404 538 L 404 539 L 402 541 L 402 542 L 401 543 L 401 544 L 400 545 L 400 546 L 399 547 L 399 548 L 398 549 L 398 550 L 397 551 L 397 552 L 396 553 L 396 554 L 395 555 L 395 556 L 394 557 L 394 558 L 393 559 L 393 560 L 392 561 L 392 563 L 391 564 L 391 565 L 390 566 L 390 568 L 389 569 L 389 570 L 388 571 L 388 572 L 387 573 L 387 575 L 386 576 L 386 578 L 385 579 L 385 581 L 384 582 L 384 584 L 383 585 L 383 587 L 382 588 L 382 596 L 384 598 L 384 599 L 380 603 L 380 604 L 378 606 L 378 607 L 377 608 L 377 609 L 376 610 L 376 611 L 375 612 L 375 614 L 374 615 L 374 618 L 373 619 L 373 625 L 374 626 L 374 628 L 375 629 L 375 630 L 377 632 L 378 632 L 379 633 L 380 633 L 381 634 L 381 635 L 386 640 L 390 640 L 391 641 L 391 642 L 393 644 L 394 644 L 395 645 L 398 645 L 399 646 L 400 645 L 402 645 L 403 644 L 404 644 L 405 643 L 406 643 L 408 641 L 408 640 L 409 639 L 409 638 L 410 637 L 412 637 L 413 636 L 414 636 L 418 632 L 418 631 L 419 630 L 419 628 L 420 627 L 420 618 L 419 617 L 419 615 L 418 614 L 418 613 L 419 612 L 420 612 L 421 611 L 422 611 L 422 610 L 424 608 L 424 607 L 425 606 L 425 604 L 427 602 L 427 601 L 428 600 L 428 599 L 429 598 L 429 597 L 430 596 L 430 595 L 432 593 L 432 592 L 433 591 L 433 590 L 434 589 L 434 587 L 436 585 L 436 584 L 437 583 L 437 582 L 439 580 L 439 579 L 441 577 L 441 576 L 442 575 L 442 574 L 445 571 L 447 571 L 448 570 L 449 570 L 450 569 L 452 569 L 453 568 L 454 568 L 455 567 L 457 567 L 458 566 L 460 566 L 461 565 L 463 565 L 464 564 L 465 564 L 466 563 L 469 563 L 470 562 L 472 562 L 473 561 L 474 561 L 475 562 L 475 566 L 474 567 L 474 571 L 473 572 L 473 576 L 472 577 L 472 581 L 471 582 L 471 586 L 470 587 L 470 590 L 469 591 L 469 595 L 468 596 L 468 599 L 467 600 L 467 604 L 466 605 L 466 608 L 465 609 L 465 612 L 464 613 L 464 616 L 463 617 L 463 620 L 462 621 L 462 624 L 461 625 L 461 628 L 460 629 L 460 637 L 464 641 L 464 642 L 463 643 L 463 644 L 462 645 L 462 647 L 461 648 L 461 651 L 460 652 L 460 654 L 459 655 L 459 659 L 458 660 L 458 663 L 457 664 L 457 668 L 456 669 L 456 674 L 455 675 L 455 679 L 454 680 L 454 682 L 453 683 L 453 685 L 452 686 L 452 688 L 451 689 L 451 691 L 450 692 L 450 694 L 449 695 L 449 697 L 448 698 L 448 700 L 447 701 L 447 703 L 446 704 L 446 706 L 445 707 L 445 709 L 444 710 L 444 712 L 443 713 L 443 715 L 442 716 L 442 718 L 441 719 L 441 721 L 440 722 L 440 724 L 439 725 L 436 725 L 435 724 L 433 724 L 432 723 L 430 723 L 429 722 L 427 722 L 426 721 L 425 721 L 424 720 L 422 720 L 421 719 L 420 719 L 419 718 L 417 718 L 416 717 L 414 717 L 413 716 L 407 716 L 406 717 L 405 717 L 404 716 L 404 715 L 400 711 L 399 711 L 397 709 L 396 709 L 395 708 L 394 708 L 393 707 L 392 707 L 391 706 L 381 706 L 380 707 L 379 707 L 378 708 L 377 708 L 372 713 L 372 714 L 370 716 L 370 717 L 369 718 L 369 719 L 368 720 L 368 722 L 367 723 L 367 724 L 366 725 L 366 726 L 365 727 L 365 729 L 364 730 L 364 731 L 363 732 L 363 734 L 362 735 L 362 737 L 361 738 L 361 739 L 360 740 L 360 742 L 359 743 L 359 745 L 358 746 L 358 748 L 357 749 L 357 751 L 356 752 L 356 755 L 355 756 L 355 759 L 354 760 L 354 764 L 353 765 L 353 772 L 352 773 L 352 782 L 353 783 L 353 787 L 354 788 L 354 790 L 355 791 L 355 792 L 356 793 L 356 794 L 358 796 L 358 797 L 360 799 L 361 799 L 363 801 L 364 801 L 365 802 L 366 802 L 367 803 L 375 803 L 376 802 L 378 802 L 379 801 L 380 801 L 383 798 L 384 798 L 384 797 L 387 794 L 387 793 L 389 791 L 389 790 L 390 789 L 390 788 L 391 787 L 391 786 L 392 785 L 392 784 L 393 783 L 393 781 L 394 780 L 394 778 L 395 777 L 395 776 L 396 775 L 396 774 L 397 773 L 397 772 L 400 769 L 401 770 L 402 770 L 403 771 L 404 771 L 405 772 L 406 772 L 407 773 L 408 773 L 409 774 L 410 774 L 411 775 L 412 775 L 413 776 L 414 776 L 415 777 L 416 777 L 417 778 L 418 778 L 419 779 L 420 779 L 421 780 L 422 780 L 423 781 L 425 781 L 426 782 L 427 782 L 428 783 L 429 783 L 430 784 L 432 784 L 433 785 L 435 785 L 436 786 L 438 786 L 439 787 L 442 787 L 443 788 L 446 788 L 447 789 L 463 789 L 464 788 L 467 788 L 468 787 L 469 787 L 470 786 L 471 786 L 472 785 L 473 785 L 475 783 L 476 783 L 487 772 L 487 771 L 490 768 L 490 767 L 492 765 L 492 764 L 495 761 L 495 760 L 497 758 L 497 757 L 498 756 L 498 755 L 500 753 L 500 752 L 501 751 L 501 750 L 503 748 L 503 747 L 504 746 L 504 745 L 505 744 L 505 743 L 507 741 L 507 740 L 508 739 L 508 738 L 509 737 L 509 736 L 511 734 L 511 733 L 512 732 L 512 731 L 513 730 L 513 729 L 514 728 L 514 727 L 515 726 L 515 725 L 516 724 L 516 723 L 517 722 L 517 721 L 518 720 L 518 719 L 519 718 L 519 717 L 520 716 L 520 715 L 521 714 L 521 713 L 522 712 L 522 711 L 524 709 L 525 710 L 525 711 L 529 715 L 529 716 L 533 720 L 533 721 L 537 725 L 537 726 L 542 731 L 542 732 L 546 736 L 546 737 L 551 742 L 551 743 L 554 746 L 554 747 L 559 752 L 559 753 L 562 756 L 562 757 L 566 761 L 566 762 L 567 763 L 567 767 L 568 768 L 568 771 L 569 772 L 569 775 L 570 776 L 570 779 L 571 780 L 571 784 L 572 785 L 572 788 L 573 789 L 573 792 L 574 793 L 574 796 L 575 797 L 575 800 L 576 801 L 576 805 L 577 806 L 577 809 L 578 810 L 578 813 L 579 814 L 579 817 L 580 818 L 580 821 L 581 822 L 581 825 L 582 826 L 582 829 L 583 830 L 583 833 L 584 834 L 584 837 L 585 838 L 585 841 L 586 842 L 586 845 L 587 846 L 587 847 L 589 849 L 590 849 L 591 850 L 593 850 L 594 849 L 597 849 L 598 850 L 598 851 L 599 852 L 599 855 L 598 856 L 598 857 L 597 858 L 597 860 L 596 861 L 596 866 L 597 867 L 597 874 L 598 875 L 598 879 L 599 880 L 599 883 L 600 884 L 600 886 L 601 887 L 601 888 L 602 889 L 602 891 L 603 892 L 603 893 L 608 898 L 610 898 L 611 899 L 622 899 L 623 898 L 627 898 L 628 897 L 629 897 L 630 896 L 632 896 L 633 895 L 634 895 L 635 894 L 636 894 L 637 893 L 639 893 L 640 892 L 641 892 L 643 890 L 644 890 L 645 889 L 646 889 L 647 888 L 648 888 L 649 887 L 650 887 L 652 885 L 653 885 L 655 883 L 656 883 L 658 881 L 659 881 L 663 877 L 664 877 L 677 864 L 677 863 L 679 861 L 679 860 L 681 858 L 681 857 L 682 856 L 682 855 L 683 854 L 683 853 L 684 852 L 684 849 L 685 848 L 685 843 L 684 842 L 684 839 L 683 838 L 683 837 L 677 831 L 676 831 L 675 830 L 673 830 L 672 829 L 667 829 L 666 828 L 665 829 L 659 829 L 658 830 L 655 830 L 654 831 L 653 831 L 652 832 L 650 832 L 649 833 L 648 833 L 647 834 L 646 834 L 645 835 L 644 835 L 643 836 L 639 836 L 638 837 L 635 837 L 634 836 L 634 833 L 635 832 L 636 832 L 638 830 L 639 830 L 643 826 L 643 818 L 642 817 L 642 813 L 641 812 L 641 808 L 640 807 L 640 802 L 639 801 L 639 797 L 638 796 L 638 792 L 637 791 L 637 786 L 636 785 L 636 781 L 635 780 L 635 777 L 634 776 L 634 771 L 633 770 L 633 766 L 632 765 L 632 761 L 631 760 L 631 757 L 630 756 L 630 753 L 629 752 L 629 748 L 628 747 L 628 744 L 627 743 L 627 740 L 626 739 L 626 737 L 625 736 L 625 734 L 624 733 L 624 732 L 623 731 L 623 729 L 622 728 L 622 727 L 621 726 L 621 725 L 619 723 L 619 722 L 618 721 L 618 720 L 617 719 L 617 718 L 615 716 L 615 715 L 613 713 L 613 712 L 612 711 L 612 710 L 610 708 L 610 707 L 608 705 L 608 704 L 606 702 L 606 701 L 603 698 L 603 697 L 601 695 L 601 694 L 598 691 L 598 690 L 595 687 L 595 686 L 593 684 L 593 683 L 590 680 L 590 679 L 587 676 L 587 675 L 584 672 L 584 671 L 581 668 L 581 667 L 578 664 L 578 663 L 572 657 L 569 657 L 567 659 L 567 661 L 568 662 L 568 663 L 572 667 L 572 668 L 575 671 L 575 672 L 579 676 L 579 677 L 581 679 L 581 680 L 584 683 L 584 684 L 587 687 L 587 688 L 589 690 L 589 691 L 592 694 L 592 695 L 595 698 L 595 699 L 598 702 L 598 703 L 600 705 L 600 706 L 602 708 L 602 709 L 604 711 L 604 712 L 605 713 L 605 714 L 608 717 L 608 718 L 609 719 L 609 720 L 611 722 L 611 723 L 613 725 L 613 726 L 614 727 L 614 728 L 615 729 L 615 730 L 616 731 L 616 732 L 617 733 L 617 734 L 618 735 L 618 737 L 619 738 L 619 740 L 620 741 L 620 744 L 621 745 L 621 747 L 622 748 L 622 751 L 623 752 L 623 756 L 624 757 L 624 761 L 625 762 L 625 765 L 626 766 L 626 770 L 627 771 L 627 775 L 628 776 L 628 780 L 629 781 L 629 786 L 630 787 L 630 791 L 631 792 L 631 795 L 632 796 L 632 801 L 633 802 L 633 806 L 634 807 L 634 812 L 635 813 L 635 819 L 636 820 L 636 821 L 635 822 L 632 822 L 631 823 L 628 823 L 627 824 L 625 824 L 624 825 L 622 825 L 621 826 L 620 826 L 619 827 L 617 827 L 616 828 L 615 828 L 614 829 L 612 829 L 611 830 L 610 830 L 609 831 L 608 831 L 607 832 L 606 832 L 605 833 L 604 833 L 603 834 L 602 834 L 600 836 L 599 836 L 598 837 L 597 837 L 595 839 L 594 839 L 594 840 L 593 841 L 592 840 L 592 837 L 591 836 L 591 833 L 590 832 L 590 829 L 589 828 L 589 824 L 588 823 L 588 821 L 587 820 L 587 816 L 586 815 L 586 812 L 585 811 L 585 807 L 584 806 L 584 803 L 583 802 L 583 799 L 582 798 L 582 795 L 581 794 L 581 791 L 580 790 L 580 787 L 579 786 L 579 784 L 578 783 L 578 779 L 577 778 L 577 775 L 576 774 L 576 771 L 575 770 L 575 768 L 576 767 L 576 765 L 575 764 L 575 763 L 574 762 L 574 761 L 573 760 L 573 759 L 570 756 L 570 755 L 567 752 L 567 751 L 564 748 L 564 747 L 561 744 L 561 743 L 557 739 L 557 738 L 553 734 L 553 733 L 549 729 L 549 728 L 544 723 L 544 722 L 539 717 L 539 716 L 538 715 L 539 714 L 538 715 L 534 711 L 534 710 L 527 703 L 527 702 L 528 701 L 528 700 L 529 699 L 529 698 L 530 697 L 530 696 L 531 695 L 531 694 L 532 693 L 532 692 L 533 691 L 533 690 L 542 681 L 542 679 L 540 677 L 537 677 L 534 680 L 533 680 L 529 684 L 529 685 L 527 687 L 527 688 L 525 690 L 525 691 L 524 692 L 524 693 L 523 694 L 523 695 L 522 696 L 522 697 L 521 698 L 521 699 L 520 700 L 520 701 L 519 702 L 519 703 L 518 704 L 518 705 L 516 707 L 516 708 L 515 709 L 515 710 L 514 711 L 514 712 L 513 713 L 513 714 L 512 715 L 512 716 L 511 717 L 511 718 L 510 719 L 510 720 L 509 721 L 509 722 L 507 724 L 507 725 L 506 726 L 506 727 L 505 728 L 505 729 L 504 730 L 504 731 L 503 732 L 503 733 L 501 735 L 501 736 L 500 737 L 500 738 L 499 739 L 499 740 L 498 741 L 498 742 L 497 743 L 497 744 L 495 746 L 495 747 L 493 749 L 493 750 L 492 751 L 492 752 L 490 754 L 490 755 L 488 757 L 488 758 L 486 760 L 486 761 L 483 764 L 483 765 L 480 768 L 480 769 L 474 775 L 473 775 L 470 778 L 469 778 L 468 779 L 467 779 L 466 780 L 464 780 L 463 781 L 461 781 L 460 782 L 451 782 L 450 781 L 446 781 L 445 780 L 442 780 L 441 779 L 439 779 L 438 778 L 435 778 L 434 777 L 433 777 L 432 776 L 430 776 L 429 775 L 428 775 L 427 774 L 426 774 L 425 773 L 423 773 L 422 772 L 421 772 L 420 771 L 419 771 L 418 770 L 417 770 L 416 769 L 415 769 L 414 768 L 413 768 L 412 767 L 411 767 L 410 766 L 409 766 L 408 765 L 407 765 L 406 764 L 405 764 L 404 763 L 403 763 L 402 762 L 401 762 L 399 760 L 398 760 L 397 759 L 397 758 L 396 757 L 396 748 L 397 747 L 397 743 L 398 742 L 398 740 L 399 739 L 399 737 L 400 736 L 400 735 L 401 734 L 401 732 L 403 730 L 403 729 L 404 728 L 404 727 L 409 722 L 410 723 L 412 723 L 413 724 L 414 724 L 415 725 L 417 725 L 418 726 L 419 726 L 420 727 L 422 727 L 423 728 L 425 728 L 426 729 L 427 729 L 428 730 L 430 730 L 431 731 L 433 731 L 434 732 L 435 732 L 436 733 L 436 735 L 435 736 L 435 737 L 434 738 L 434 742 L 435 743 L 438 743 L 441 740 L 441 738 L 442 737 L 442 736 L 443 735 L 443 733 L 444 732 L 444 731 L 445 730 L 445 729 L 446 728 L 446 726 L 447 725 L 447 723 L 448 722 L 448 720 L 449 719 L 449 717 L 450 716 L 450 714 L 451 713 L 451 711 L 452 710 L 452 708 L 453 707 L 453 706 L 454 705 L 454 703 L 455 702 L 455 699 L 456 698 L 456 696 L 457 695 L 457 693 L 458 692 L 458 690 L 459 689 L 459 687 L 460 686 L 460 684 L 461 683 L 461 681 L 462 680 L 462 677 L 463 676 L 463 670 L 464 669 L 464 665 L 465 664 L 465 660 L 466 659 L 466 656 L 467 655 L 467 652 L 468 651 L 468 648 L 469 647 L 469 645 L 470 644 L 471 644 L 472 645 L 474 645 L 475 646 L 476 646 L 477 647 L 479 647 L 480 648 L 481 648 L 482 649 L 484 649 L 485 650 L 488 650 L 489 651 L 492 651 L 493 652 L 496 652 L 497 653 L 500 653 L 501 654 L 506 654 L 507 655 L 514 655 L 515 656 L 528 656 L 529 657 L 539 657 L 540 656 L 552 656 L 553 655 L 558 655 L 559 654 L 564 654 L 565 653 L 568 653 L 569 652 L 570 652 L 571 651 L 572 651 L 573 650 L 574 650 L 576 648 L 576 643 L 577 642 L 577 635 L 578 634 L 578 628 L 579 627 L 579 622 L 580 621 L 580 616 L 581 615 L 581 611 L 582 610 L 582 607 L 583 606 L 583 602 L 584 601 L 584 597 L 585 596 L 585 594 L 586 593 L 588 595 L 588 596 L 601 609 L 602 609 L 605 612 L 606 612 L 608 614 L 609 614 L 611 616 L 612 616 L 613 617 L 615 617 L 616 618 L 618 618 L 619 619 L 625 619 L 626 620 L 628 620 L 629 619 L 633 619 L 634 618 L 636 618 L 637 617 L 639 617 L 640 616 L 641 616 L 642 615 L 643 615 L 644 614 L 645 614 L 646 613 L 647 613 L 649 611 L 650 611 L 651 610 L 652 610 L 654 608 L 655 608 L 657 606 L 658 606 L 661 603 L 662 603 L 665 600 L 666 600 L 670 596 L 671 596 L 675 592 L 676 592 L 683 585 L 684 585 L 688 581 L 688 574 L 687 573 L 688 572 L 689 572 L 690 571 L 692 571 L 693 570 L 694 570 L 695 569 L 696 569 L 697 568 L 698 568 L 699 567 L 700 567 L 703 564 L 704 564 L 709 559 L 709 558 L 712 555 L 712 554 L 714 552 L 715 552 L 716 553 L 719 553 L 720 554 L 723 554 L 724 555 L 727 555 L 728 556 L 731 556 L 732 557 L 735 557 L 736 558 L 739 558 L 740 559 L 744 559 L 745 560 L 748 560 L 749 561 L 752 561 L 753 562 L 755 562 L 756 563 L 759 563 L 760 564 L 763 564 L 764 565 L 767 565 L 768 566 L 771 566 L 772 567 L 776 567 L 777 568 L 780 568 L 781 569 L 784 569 L 785 570 L 789 570 L 790 571 L 792 571 L 793 570 L 794 570 L 795 569 L 795 568 L 796 567 L 796 564 L 797 563 L 797 560 L 798 559 L 798 556 L 799 555 L 799 552 L 800 551 L 800 549 L 801 548 L 801 545 L 802 544 L 802 541 L 803 540 L 803 537 L 804 536 L 804 533 L 805 532 L 805 529 L 806 528 L 806 525 L 807 524 L 807 521 L 808 520 L 808 517 L 809 516 L 809 513 L 810 512 L 810 510 L 811 509 L 811 506 L 812 505 L 812 502 L 813 501 L 813 498 L 814 497 L 814 494 L 815 493 L 815 490 L 816 489 L 816 486 L 817 485 L 817 483 L 818 482 L 818 479 L 819 478 L 819 474 L 820 473 L 820 470 L 821 469 L 821 466 L 822 465 L 822 462 L 823 461 L 823 457 L 824 456 L 824 453 L 825 452 L 825 449 L 826 448 L 826 445 L 827 444 L 827 441 L 828 440 L 828 436 L 829 435 L 829 432 L 830 431 L 830 428 L 831 427 L 831 424 L 832 423 L 832 420 L 833 419 L 833 414 L 830 411 L 828 411 L 827 410 L 825 410 L 824 409 L 822 409 L 821 408 L 818 408 L 817 407 L 815 407 L 814 406 L 812 406 L 811 405 L 809 405 L 808 404 L 806 404 L 805 403 L 802 403 L 801 402 L 798 402 L 797 401 L 795 401 L 794 400 L 791 400 L 790 399 L 788 399 L 787 398 L 785 398 L 784 397 L 782 397 L 781 396 L 778 396 L 777 395 L 774 395 L 773 394 L 770 394 L 769 393 L 766 393 L 765 392 L 762 392 L 761 391 L 759 391 L 758 390 L 755 390 L 754 389 L 751 389 L 750 388 L 747 388 L 746 387 L 742 387 L 741 386 L 739 386 L 738 385 L 735 385 L 734 384 L 730 384 L 729 383 L 725 383 L 724 382 L 721 382 L 720 381 L 714 381 L 712 383 L 712 385 L 711 386 L 711 389 L 710 390 L 710 393 L 709 394 L 709 397 L 708 398 L 708 402 L 707 403 L 707 407 L 706 408 L 706 411 L 705 412 L 705 415 L 704 416 L 704 419 L 703 420 L 703 423 L 702 424 L 702 427 L 701 428 L 701 431 L 700 432 L 700 436 L 699 437 L 699 440 L 698 441 L 698 444 L 697 445 L 697 448 L 696 449 L 696 452 L 695 453 L 695 457 L 694 458 L 694 461 L 693 462 L 693 465 L 692 466 L 692 469 L 691 470 L 691 473 L 690 474 L 690 477 L 689 478 L 689 481 L 688 482 L 688 485 L 687 486 L 687 489 L 686 490 L 686 494 L 685 495 L 685 498 L 684 499 L 684 502 L 683 503 L 683 507 L 682 508 L 682 512 L 681 513 L 681 515 L 679 517 L 677 517 L 675 519 L 674 519 L 672 521 L 671 521 L 667 525 L 667 526 L 666 527 L 666 528 L 665 529 L 665 530 L 664 531 L 664 533 L 663 534 L 663 538 L 662 539 L 662 542 L 661 543 L 658 543 L 657 544 L 656 544 L 654 546 L 653 546 L 652 547 L 651 547 L 649 549 L 648 549 L 646 551 L 645 551 L 642 554 L 641 554 L 640 555 L 639 555 L 637 557 L 636 557 L 634 559 L 633 559 L 631 561 L 629 559 L 629 558 L 627 556 L 627 555 L 625 553 L 625 552 L 624 551 L 624 550 L 622 548 L 622 547 L 620 545 L 620 544 L 618 542 L 618 541 L 617 540 L 617 539 L 615 537 L 615 536 L 613 534 L 613 533 L 611 531 L 611 530 L 609 528 L 609 527 L 607 525 L 607 524 L 605 522 L 605 521 L 602 518 L 602 517 L 597 512 L 597 511 L 590 504 L 589 504 L 585 500 L 584 500 L 583 499 L 582 499 L 581 498 L 580 498 L 579 497 L 578 497 L 576 495 L 574 495 L 573 494 L 571 494 L 570 493 L 570 490 L 572 488 L 579 488 L 580 487 L 584 487 L 585 486 L 587 486 L 588 485 L 590 485 L 591 484 L 592 484 L 593 483 L 595 483 L 596 482 L 597 482 L 599 480 L 600 480 L 602 478 L 603 478 L 613 468 L 613 467 L 616 464 L 616 463 L 617 462 L 617 461 L 618 460 L 618 459 L 619 458 L 619 457 L 620 456 L 620 454 L 621 453 L 621 452 L 622 451 L 622 449 L 623 448 L 623 445 L 624 444 L 624 441 L 625 440 L 625 435 L 626 434 L 626 407 L 625 406 L 625 399 L 624 398 L 624 394 L 623 393 L 623 391 L 626 388 L 626 387 L 627 386 L 627 383 L 628 382 L 628 370 L 627 369 L 627 366 L 626 365 L 626 364 L 625 363 L 625 361 L 623 359 L 623 358 L 621 356 L 621 355 L 617 351 L 618 350 L 619 350 L 620 351 L 621 351 L 628 358 L 628 359 L 629 360 L 629 361 L 630 362 L 630 364 L 631 365 L 631 367 L 632 368 L 634 368 L 635 367 L 635 366 L 636 365 L 635 364 L 635 361 L 634 360 L 634 358 L 633 357 L 633 356 L 631 354 L 631 353 L 625 347 L 624 347 L 622 345 L 621 345 L 620 344 L 619 344 L 618 343 L 616 343 L 615 342 L 609 342 L 607 340 L 607 339 L 608 338 L 609 338 L 609 337 L 611 335 L 611 333 L 612 332 L 612 321 L 611 320 L 611 319 L 610 318 L 610 316 L 608 314 L 608 313 L 603 308 L 602 308 L 601 307 L 600 307 L 599 306 L 597 306 L 596 305 Z M 674 848 L 675 847 L 677 847 L 678 848 L 677 849 L 677 851 L 676 852 L 676 853 L 675 854 L 675 855 L 672 858 L 672 859 L 660 871 L 659 871 L 655 875 L 654 875 L 652 877 L 651 877 L 649 879 L 648 879 L 646 881 L 645 881 L 644 882 L 643 882 L 641 884 L 640 884 L 639 885 L 638 885 L 637 886 L 636 886 L 635 887 L 633 887 L 632 888 L 631 888 L 630 889 L 628 889 L 627 890 L 626 890 L 625 891 L 622 891 L 621 892 L 612 892 L 611 891 L 611 890 L 612 889 L 613 889 L 614 888 L 615 888 L 616 887 L 617 887 L 619 885 L 621 885 L 622 884 L 623 884 L 625 882 L 626 882 L 627 881 L 628 881 L 631 878 L 632 878 L 633 877 L 634 877 L 636 875 L 637 875 L 640 872 L 641 872 L 645 868 L 646 868 L 651 863 L 652 863 L 657 858 L 658 858 L 662 854 L 663 854 L 665 852 L 666 852 L 668 850 L 669 850 L 670 849 L 671 849 L 672 848 Z M 663 836 L 664 835 L 668 835 L 669 836 L 672 836 L 673 837 L 674 837 L 677 840 L 676 841 L 671 841 L 670 842 L 669 842 L 668 843 L 667 843 L 666 844 L 665 844 L 663 846 L 662 846 L 659 849 L 658 849 L 654 853 L 653 853 L 649 857 L 648 857 L 643 862 L 642 862 L 637 867 L 636 867 L 634 869 L 633 869 L 630 872 L 629 872 L 627 874 L 626 874 L 624 876 L 623 876 L 622 877 L 621 877 L 620 878 L 619 878 L 618 879 L 617 879 L 615 881 L 614 881 L 613 882 L 612 882 L 611 883 L 610 883 L 608 885 L 607 885 L 606 884 L 606 881 L 605 880 L 605 876 L 604 875 L 604 870 L 603 869 L 603 861 L 604 860 L 605 860 L 606 861 L 609 861 L 610 860 L 613 860 L 614 859 L 615 859 L 616 858 L 617 858 L 630 845 L 631 845 L 632 846 L 631 847 L 631 848 L 630 849 L 630 852 L 629 853 L 630 854 L 630 855 L 633 855 L 635 853 L 635 849 L 636 848 L 636 847 L 637 846 L 637 845 L 640 842 L 641 842 L 642 843 L 641 844 L 641 846 L 640 847 L 640 850 L 643 850 L 645 848 L 645 847 L 646 846 L 646 845 L 647 844 L 647 842 L 649 840 L 650 840 L 651 839 L 652 839 L 653 838 L 655 838 L 656 837 L 658 837 L 659 836 Z M 625 832 L 626 831 L 627 832 L 627 834 L 628 835 L 628 838 L 629 839 L 628 840 L 627 840 L 626 841 L 625 841 L 621 845 L 620 845 L 620 846 L 618 848 L 618 849 L 614 853 L 613 853 L 612 854 L 607 854 L 605 852 L 605 850 L 604 849 L 604 846 L 603 845 L 603 842 L 605 840 L 606 840 L 607 839 L 608 839 L 609 838 L 610 838 L 611 837 L 612 837 L 613 836 L 615 836 L 616 835 L 617 835 L 618 834 L 620 834 L 621 833 L 622 833 L 623 832 Z M 392 765 L 393 764 L 394 765 L 393 766 Z M 392 732 L 393 731 L 394 732 L 394 734 L 393 735 L 393 737 L 392 738 L 391 737 L 391 734 L 392 733 Z M 393 731 L 394 730 L 395 731 L 394 732 Z M 394 729 L 395 728 L 396 729 L 396 730 L 395 731 L 394 730 Z M 395 728 L 396 727 L 397 728 L 396 729 Z M 383 713 L 384 712 L 388 712 L 389 713 L 390 713 L 391 714 L 392 714 L 393 715 L 394 715 L 396 717 L 397 717 L 399 719 L 398 720 L 396 720 L 395 721 L 394 721 L 392 723 L 391 723 L 390 724 L 390 725 L 388 727 L 388 728 L 387 729 L 387 730 L 386 731 L 386 734 L 385 735 L 385 740 L 386 741 L 386 743 L 387 744 L 387 745 L 390 748 L 390 752 L 389 753 L 388 752 L 387 752 L 386 751 L 385 751 L 384 752 L 384 753 L 383 754 L 383 755 L 384 756 L 385 756 L 387 758 L 389 758 L 390 759 L 390 760 L 391 761 L 391 762 L 393 764 L 392 765 L 391 765 L 388 762 L 387 762 L 386 761 L 385 761 L 384 760 L 383 760 L 382 759 L 381 759 L 379 761 L 379 763 L 381 765 L 383 765 L 384 766 L 385 766 L 387 768 L 388 768 L 390 770 L 390 772 L 389 773 L 388 772 L 387 772 L 385 770 L 384 770 L 383 769 L 381 769 L 380 768 L 378 768 L 377 769 L 377 771 L 379 773 L 380 773 L 381 774 L 382 774 L 383 775 L 384 775 L 387 778 L 387 779 L 386 780 L 386 782 L 385 783 L 385 784 L 384 785 L 384 786 L 382 788 L 382 789 L 376 795 L 375 795 L 374 796 L 369 796 L 368 795 L 367 795 L 366 794 L 365 794 L 363 792 L 363 791 L 362 790 L 362 789 L 361 788 L 361 787 L 360 786 L 360 781 L 359 780 L 359 773 L 360 772 L 360 766 L 361 765 L 361 761 L 362 760 L 362 757 L 363 756 L 363 753 L 364 752 L 364 750 L 365 749 L 365 747 L 366 746 L 366 744 L 367 743 L 367 741 L 368 740 L 368 739 L 369 738 L 369 736 L 370 735 L 370 733 L 371 732 L 371 730 L 372 729 L 372 728 L 373 727 L 373 726 L 374 725 L 374 724 L 375 723 L 375 722 L 376 721 L 376 720 L 377 719 L 377 718 L 382 713 Z M 389 603 L 390 603 L 392 605 L 393 605 L 395 607 L 396 607 L 397 608 L 398 608 L 399 609 L 400 609 L 401 610 L 403 610 L 404 611 L 406 611 L 407 612 L 410 612 L 411 613 L 411 614 L 412 615 L 412 616 L 413 617 L 413 619 L 414 620 L 414 626 L 413 627 L 413 628 L 411 630 L 410 629 L 410 626 L 409 625 L 408 625 L 407 624 L 404 627 L 404 631 L 403 632 L 403 636 L 400 639 L 397 639 L 395 637 L 395 635 L 393 633 L 391 633 L 390 634 L 389 634 L 387 632 L 387 631 L 386 630 L 386 629 L 385 628 L 382 628 L 381 627 L 381 626 L 380 625 L 380 617 L 381 616 L 381 615 L 382 614 L 382 613 L 383 612 L 383 611 L 384 610 L 384 609 L 386 607 L 386 606 Z M 683 522 L 684 521 L 686 523 L 686 524 L 685 525 L 685 526 L 684 527 L 684 528 L 678 534 L 678 536 L 680 538 L 680 539 L 681 540 L 681 548 L 680 549 L 680 552 L 681 552 L 682 553 L 683 553 L 684 552 L 685 552 L 685 551 L 686 550 L 686 549 L 687 548 L 687 547 L 688 546 L 691 546 L 692 547 L 695 547 L 696 548 L 699 548 L 700 549 L 703 549 L 704 550 L 705 550 L 706 551 L 706 552 L 697 561 L 696 561 L 695 562 L 694 562 L 693 563 L 692 563 L 691 564 L 689 564 L 688 565 L 686 565 L 685 566 L 684 566 L 683 567 L 682 567 L 680 569 L 672 561 L 672 560 L 670 558 L 670 557 L 668 555 L 668 554 L 666 552 L 666 550 L 667 549 L 667 548 L 668 547 L 668 542 L 669 541 L 669 536 L 670 535 L 670 533 L 671 532 L 671 531 L 678 524 L 679 524 L 680 523 L 681 523 L 682 522 Z M 571 501 L 572 500 L 573 501 L 572 502 Z M 516 494 L 517 493 L 522 493 L 523 494 L 522 495 L 523 496 L 523 498 L 524 499 L 524 500 L 526 502 L 526 503 L 529 506 L 529 507 L 531 509 L 532 509 L 535 512 L 536 512 L 537 513 L 538 513 L 539 514 L 540 514 L 541 515 L 543 515 L 544 516 L 547 516 L 548 517 L 558 517 L 559 516 L 561 516 L 562 515 L 563 515 L 564 514 L 565 514 L 570 509 L 570 508 L 571 507 L 571 506 L 572 505 L 572 502 L 573 501 L 575 503 L 576 503 L 577 504 L 578 504 L 580 506 L 581 506 L 583 508 L 584 508 L 594 518 L 594 519 L 598 523 L 598 524 L 600 526 L 600 527 L 602 529 L 602 530 L 604 532 L 604 533 L 606 535 L 606 536 L 608 538 L 608 539 L 610 541 L 610 542 L 611 543 L 611 544 L 614 547 L 614 548 L 616 550 L 616 551 L 618 553 L 618 554 L 619 555 L 619 556 L 621 558 L 621 559 L 623 561 L 623 562 L 625 564 L 625 566 L 623 568 L 623 569 L 621 571 L 621 573 L 620 574 L 623 577 L 624 576 L 625 576 L 626 575 L 626 574 L 628 572 L 628 571 L 630 569 L 631 569 L 633 567 L 634 567 L 635 566 L 636 566 L 638 564 L 639 564 L 641 562 L 642 562 L 644 560 L 645 560 L 647 558 L 648 558 L 650 556 L 651 556 L 653 554 L 654 554 L 656 552 L 657 552 L 658 551 L 659 551 L 660 552 L 660 553 L 661 554 L 661 556 L 663 558 L 663 559 L 664 560 L 664 561 L 667 564 L 667 565 L 678 576 L 679 576 L 681 578 L 680 579 L 679 579 L 671 587 L 670 587 L 665 592 L 664 592 L 661 595 L 660 595 L 657 598 L 656 598 L 653 601 L 652 601 L 650 603 L 649 603 L 647 605 L 646 605 L 645 606 L 644 606 L 642 608 L 640 608 L 639 609 L 638 609 L 637 610 L 636 610 L 635 611 L 633 611 L 632 612 L 629 612 L 628 613 L 626 613 L 625 612 L 621 612 L 620 611 L 617 611 L 616 610 L 615 610 L 614 609 L 613 609 L 611 607 L 610 607 L 606 603 L 605 603 L 591 589 L 591 588 L 587 584 L 588 583 L 588 580 L 589 579 L 589 575 L 590 574 L 590 571 L 591 570 L 591 565 L 592 564 L 592 549 L 590 547 L 589 547 L 588 548 L 587 548 L 586 549 L 586 558 L 585 559 L 585 564 L 584 565 L 584 570 L 583 571 L 583 575 L 582 576 L 582 579 L 581 580 L 581 582 L 580 583 L 580 587 L 579 588 L 579 591 L 578 592 L 578 596 L 577 597 L 577 600 L 576 601 L 576 605 L 575 606 L 575 610 L 574 611 L 574 614 L 573 615 L 573 619 L 572 620 L 572 626 L 571 627 L 571 633 L 570 634 L 570 640 L 569 641 L 569 645 L 568 646 L 564 646 L 563 647 L 558 647 L 557 648 L 551 648 L 550 649 L 517 649 L 516 648 L 509 648 L 508 647 L 504 647 L 503 646 L 499 646 L 498 645 L 494 645 L 493 644 L 490 644 L 489 643 L 487 643 L 486 642 L 484 642 L 483 641 L 481 641 L 480 640 L 478 640 L 477 639 L 476 639 L 475 638 L 474 638 L 473 637 L 472 637 L 471 636 L 470 636 L 469 635 L 468 635 L 466 633 L 467 632 L 467 629 L 468 628 L 468 626 L 469 625 L 469 622 L 470 621 L 470 618 L 471 617 L 471 613 L 472 612 L 472 610 L 473 609 L 473 606 L 474 605 L 474 601 L 475 600 L 475 597 L 476 596 L 476 593 L 477 592 L 477 587 L 478 586 L 478 583 L 479 582 L 479 578 L 480 577 L 480 573 L 481 572 L 481 567 L 482 566 L 482 562 L 483 561 L 483 559 L 484 558 L 486 558 L 487 557 L 490 557 L 491 556 L 493 556 L 494 555 L 495 555 L 496 554 L 497 554 L 498 553 L 498 550 L 496 548 L 492 548 L 491 549 L 489 549 L 488 550 L 485 550 L 484 551 L 482 551 L 481 552 L 478 552 L 477 553 L 474 553 L 473 554 L 471 554 L 470 555 L 468 555 L 467 556 L 465 556 L 464 557 L 462 557 L 461 558 L 459 558 L 458 559 L 456 559 L 455 560 L 453 560 L 452 561 L 450 561 L 449 562 L 448 562 L 447 563 L 445 563 L 444 564 L 443 564 L 442 565 L 440 565 L 438 567 L 438 568 L 437 569 L 437 570 L 435 572 L 435 573 L 434 574 L 434 575 L 432 577 L 432 578 L 431 579 L 431 580 L 429 582 L 429 583 L 428 584 L 428 585 L 427 586 L 427 587 L 426 588 L 426 589 L 424 591 L 424 592 L 423 593 L 423 594 L 422 595 L 422 596 L 421 597 L 421 598 L 420 599 L 420 600 L 419 601 L 419 603 L 418 604 L 418 605 L 417 606 L 412 606 L 411 605 L 408 605 L 407 604 L 405 604 L 404 603 L 402 603 L 401 602 L 400 602 L 398 600 L 397 600 L 395 598 L 394 598 L 389 593 L 389 589 L 390 588 L 390 586 L 391 585 L 391 583 L 392 582 L 392 580 L 393 579 L 393 577 L 394 576 L 394 575 L 395 574 L 395 572 L 396 571 L 396 570 L 397 569 L 397 568 L 398 567 L 398 565 L 399 564 L 399 563 L 400 562 L 400 561 L 401 560 L 401 558 L 402 557 L 402 556 L 403 555 L 403 554 L 404 553 L 404 552 L 405 551 L 405 550 L 406 549 L 406 548 L 408 546 L 408 545 L 409 544 L 409 543 L 411 541 L 411 540 L 421 530 L 422 530 L 424 528 L 425 528 L 427 526 L 428 526 L 430 524 L 431 524 L 433 522 L 434 522 L 435 521 L 436 521 L 437 520 L 438 520 L 439 519 L 440 519 L 442 517 L 443 517 L 444 516 L 445 516 L 446 515 L 447 515 L 448 514 L 449 514 L 450 513 L 451 513 L 452 512 L 453 512 L 454 511 L 455 511 L 456 510 L 458 510 L 459 509 L 460 509 L 461 508 L 462 508 L 463 507 L 464 507 L 465 506 L 467 506 L 468 505 L 469 505 L 470 504 L 472 504 L 473 503 L 474 503 L 475 502 L 477 502 L 478 501 L 479 501 L 480 500 L 483 500 L 484 499 L 486 499 L 487 498 L 490 498 L 491 497 L 494 497 L 495 496 L 498 496 L 499 495 L 505 495 L 506 494 Z M 479 431 L 480 430 L 481 431 L 481 432 L 480 433 L 479 432 Z M 478 427 L 479 426 L 480 427 L 480 429 L 479 430 L 478 429 Z M 477 424 L 478 423 L 479 424 L 479 425 L 478 426 L 477 425 Z M 473 398 L 474 397 L 475 398 L 474 399 Z M 457 391 L 458 390 L 459 391 L 458 392 Z M 455 390 L 456 389 L 457 390 L 456 391 Z M 718 389 L 719 388 L 720 389 L 725 389 L 726 390 L 729 390 L 730 391 L 733 391 L 734 392 L 737 392 L 738 393 L 740 393 L 741 394 L 745 394 L 746 395 L 749 395 L 750 396 L 753 396 L 754 397 L 757 397 L 758 398 L 761 398 L 762 399 L 764 399 L 765 400 L 768 400 L 769 401 L 772 401 L 773 402 L 775 402 L 776 403 L 779 403 L 780 404 L 783 404 L 784 405 L 786 405 L 787 406 L 789 406 L 790 407 L 793 407 L 794 408 L 796 408 L 797 409 L 800 409 L 801 410 L 804 410 L 805 411 L 807 411 L 808 412 L 810 412 L 811 413 L 814 413 L 815 414 L 817 414 L 818 415 L 820 415 L 821 416 L 823 416 L 824 417 L 825 417 L 826 418 L 826 419 L 825 420 L 825 424 L 824 425 L 824 428 L 823 429 L 823 432 L 822 433 L 822 436 L 821 437 L 821 440 L 820 441 L 820 444 L 819 445 L 819 449 L 818 450 L 818 453 L 817 454 L 817 457 L 816 458 L 816 460 L 815 461 L 815 464 L 814 465 L 814 469 L 813 470 L 813 473 L 812 474 L 812 477 L 811 478 L 811 480 L 810 481 L 810 485 L 809 486 L 809 489 L 808 490 L 808 492 L 807 493 L 807 496 L 806 497 L 806 500 L 805 501 L 805 504 L 804 505 L 804 508 L 803 509 L 803 512 L 802 513 L 802 516 L 801 517 L 801 520 L 800 521 L 800 524 L 799 525 L 799 528 L 798 529 L 798 531 L 797 532 L 797 535 L 796 536 L 796 539 L 795 540 L 795 543 L 794 544 L 794 547 L 793 548 L 793 550 L 792 551 L 792 554 L 791 555 L 791 559 L 790 560 L 790 562 L 789 563 L 786 563 L 785 562 L 782 562 L 781 561 L 778 561 L 777 560 L 774 560 L 773 559 L 770 559 L 769 558 L 766 558 L 765 557 L 762 557 L 761 556 L 758 556 L 757 555 L 754 555 L 753 554 L 750 554 L 749 553 L 746 553 L 745 552 L 742 552 L 741 551 L 738 551 L 737 550 L 734 550 L 733 549 L 730 549 L 729 548 L 726 548 L 725 547 L 722 547 L 721 546 L 717 546 L 716 545 L 713 545 L 712 544 L 709 544 L 708 543 L 705 543 L 704 542 L 701 542 L 700 541 L 696 541 L 695 540 L 693 540 L 692 539 L 689 539 L 688 538 L 687 538 L 686 537 L 687 536 L 686 537 L 685 536 L 685 535 L 690 530 L 690 529 L 691 528 L 691 526 L 692 525 L 692 521 L 691 520 L 691 519 L 690 518 L 690 517 L 689 517 L 688 516 L 688 513 L 689 512 L 689 509 L 690 508 L 690 504 L 691 503 L 691 500 L 692 499 L 692 496 L 693 495 L 693 492 L 694 491 L 694 488 L 695 487 L 695 483 L 696 482 L 696 479 L 697 478 L 697 475 L 698 474 L 698 471 L 699 470 L 699 467 L 700 466 L 700 463 L 701 462 L 701 459 L 702 458 L 702 455 L 703 454 L 703 451 L 704 450 L 704 447 L 705 446 L 705 442 L 706 441 L 706 438 L 707 437 L 707 434 L 708 433 L 708 430 L 709 429 L 709 425 L 710 424 L 710 421 L 711 420 L 711 417 L 712 416 L 712 412 L 713 411 L 713 408 L 714 407 L 714 403 L 715 402 L 715 399 L 716 398 L 716 395 L 717 394 L 717 391 L 718 390 Z M 552 388 L 553 387 L 554 388 L 553 389 Z M 553 387 L 554 386 L 555 387 L 554 388 Z M 554 386 L 555 385 L 556 386 L 555 387 Z M 555 385 L 556 384 L 557 385 L 556 386 Z M 557 384 L 558 383 L 559 384 L 558 385 Z M 558 383 L 559 382 L 560 383 L 559 384 Z M 559 382 L 560 381 L 561 382 L 560 383 Z M 446 382 L 447 381 L 448 382 L 447 383 Z M 560 381 L 561 380 L 562 381 L 561 382 Z M 561 380 L 562 379 L 563 380 L 562 381 Z M 489 378 L 490 377 L 491 378 L 491 379 L 490 380 L 489 379 Z M 565 375 L 566 376 L 566 377 L 563 380 L 562 379 L 562 378 Z M 490 376 L 491 375 L 492 376 L 492 377 L 491 378 L 490 377 Z M 565 375 L 566 374 L 567 375 L 566 376 Z M 566 373 L 567 372 L 568 373 L 568 374 L 567 375 L 566 374 Z M 567 372 L 568 371 L 569 372 L 568 373 Z M 568 371 L 569 370 L 570 371 L 569 372 Z M 569 369 L 570 368 L 571 369 L 570 370 Z M 570 367 L 571 366 L 572 367 L 571 368 Z M 443 364 L 444 363 L 445 364 L 445 369 L 446 370 L 446 376 L 447 377 L 447 381 L 446 382 L 445 381 L 445 380 L 444 379 L 444 378 L 443 377 L 443 371 L 442 370 L 442 369 L 443 368 Z M 618 363 L 619 362 L 620 363 L 619 364 Z M 458 360 L 459 359 L 460 360 L 459 361 Z M 459 358 L 460 357 L 461 358 L 461 359 L 460 360 L 459 359 Z M 460 357 L 461 356 L 462 357 L 461 358 Z M 580 356 L 581 355 L 582 355 L 583 356 L 584 356 L 585 357 L 586 357 L 587 358 L 588 358 L 589 359 L 595 359 L 599 363 L 600 363 L 605 368 L 605 369 L 610 374 L 610 375 L 611 376 L 611 377 L 612 378 L 612 379 L 613 380 L 613 381 L 614 382 L 614 383 L 615 384 L 615 387 L 616 388 L 616 389 L 617 390 L 617 394 L 618 395 L 618 401 L 619 402 L 619 410 L 620 411 L 620 430 L 619 431 L 619 437 L 618 438 L 618 442 L 617 443 L 617 446 L 616 447 L 616 448 L 615 449 L 615 451 L 614 452 L 614 453 L 613 454 L 613 455 L 612 456 L 612 457 L 611 458 L 611 459 L 610 460 L 610 461 L 598 473 L 597 473 L 595 475 L 594 475 L 593 476 L 592 476 L 591 477 L 590 477 L 589 478 L 588 478 L 587 479 L 585 479 L 584 480 L 581 480 L 580 481 L 560 481 L 559 482 L 559 485 L 560 486 L 561 486 L 562 487 L 563 487 L 564 488 L 564 491 L 563 492 L 563 497 L 562 498 L 563 499 L 563 500 L 564 501 L 565 501 L 566 502 L 566 503 L 565 504 L 565 505 L 562 508 L 561 508 L 560 509 L 558 509 L 557 510 L 547 510 L 546 509 L 544 509 L 543 508 L 542 508 L 541 507 L 540 507 L 538 505 L 537 505 L 531 499 L 531 498 L 530 497 L 530 496 L 529 495 L 532 492 L 532 491 L 533 490 L 533 488 L 534 487 L 534 484 L 535 483 L 535 480 L 537 478 L 538 478 L 538 474 L 537 473 L 536 473 L 525 462 L 525 461 L 523 459 L 523 458 L 522 457 L 522 456 L 521 455 L 521 454 L 520 453 L 520 452 L 521 451 L 521 450 L 520 449 L 520 448 L 512 448 L 511 447 L 510 447 L 509 446 L 508 446 L 502 440 L 502 439 L 501 438 L 501 436 L 500 435 L 500 424 L 502 422 L 502 421 L 505 418 L 506 418 L 507 417 L 512 417 L 513 418 L 515 418 L 520 423 L 520 424 L 521 425 L 521 426 L 524 426 L 525 425 L 526 425 L 527 424 L 527 420 L 528 419 L 528 418 L 529 417 L 529 415 L 530 414 L 530 412 L 531 411 L 531 407 L 532 406 L 532 404 L 533 403 L 534 403 L 535 402 L 538 402 L 539 401 L 541 401 L 542 400 L 543 400 L 544 399 L 546 399 L 547 398 L 548 398 L 550 396 L 551 396 L 552 395 L 553 395 L 555 393 L 556 393 L 558 391 L 559 391 L 562 388 L 563 388 L 570 381 L 570 380 L 572 378 L 572 377 L 575 374 L 575 373 L 576 372 L 576 370 L 577 369 L 577 368 L 578 367 L 578 365 L 579 364 L 579 361 L 580 360 Z M 461 356 L 462 355 L 463 356 L 462 357 Z M 462 355 L 463 354 L 464 355 L 463 356 Z M 453 351 L 454 350 L 455 351 L 454 352 Z M 616 350 L 617 349 L 618 350 L 617 351 Z M 567 348 L 568 347 L 569 348 L 568 349 Z M 485 347 L 486 346 L 487 347 L 486 348 Z M 484 346 L 485 345 L 486 346 L 485 347 Z M 483 345 L 484 344 L 485 345 L 484 346 Z M 480 343 L 481 342 L 482 342 L 484 344 L 483 345 L 482 345 Z M 477 342 L 478 341 L 480 341 L 481 342 L 480 343 L 478 343 Z M 474 341 L 475 340 L 477 340 L 478 341 L 477 342 L 475 342 Z M 536 335 L 537 334 L 538 335 L 537 336 Z M 540 334 L 541 333 L 542 334 L 541 335 Z M 546 333 L 547 332 L 548 333 L 547 334 Z M 590 311 L 591 310 L 592 311 L 595 311 L 596 312 L 598 312 L 600 314 L 601 314 L 603 316 L 603 317 L 605 319 L 605 320 L 606 321 L 606 323 L 607 324 L 607 331 L 606 332 L 606 334 L 605 335 L 605 336 L 604 337 L 603 336 L 602 336 L 598 332 L 597 332 L 596 331 L 595 331 L 594 330 L 593 330 L 592 329 L 591 329 L 590 328 L 587 328 L 586 327 L 582 327 L 581 328 L 578 328 L 577 329 L 576 329 L 575 328 L 575 324 L 576 323 L 576 321 L 577 320 L 577 319 L 578 318 L 578 317 L 582 313 L 583 313 L 584 312 L 585 312 L 586 311 Z" fill="#000000" fill-rule="evenodd"/>
<path d="M 775 757 L 774 758 L 773 758 L 771 760 L 770 760 L 768 762 L 767 762 L 765 764 L 764 764 L 763 765 L 762 765 L 761 766 L 760 766 L 758 768 L 758 771 L 760 773 L 762 773 L 763 772 L 764 772 L 765 771 L 766 771 L 768 769 L 769 769 L 770 768 L 771 768 L 774 765 L 775 765 L 779 761 L 779 759 L 777 757 Z M 803 730 L 802 731 L 801 731 L 791 741 L 791 742 L 789 744 L 789 747 L 790 748 L 790 749 L 792 749 L 794 747 L 795 747 L 796 746 L 796 745 L 802 739 L 802 738 L 806 734 L 806 731 L 805 730 Z M 880 662 L 878 664 L 878 667 L 880 669 L 881 669 L 882 670 L 883 670 L 884 671 L 885 671 L 887 673 L 888 673 L 889 674 L 890 674 L 891 675 L 892 675 L 893 676 L 894 676 L 895 677 L 896 677 L 897 678 L 898 678 L 900 680 L 899 681 L 890 681 L 889 682 L 884 682 L 883 683 L 879 683 L 878 684 L 875 684 L 874 685 L 872 685 L 871 686 L 868 686 L 867 687 L 865 687 L 864 688 L 862 688 L 861 689 L 859 689 L 858 690 L 857 690 L 856 691 L 854 691 L 853 692 L 852 692 L 851 693 L 849 693 L 848 694 L 847 694 L 846 695 L 845 695 L 843 697 L 842 697 L 841 698 L 840 698 L 839 699 L 838 699 L 837 700 L 836 700 L 834 702 L 833 702 L 831 704 L 830 704 L 827 707 L 826 707 L 824 709 L 823 709 L 815 717 L 815 719 L 817 721 L 817 722 L 819 722 L 822 719 L 823 719 L 827 715 L 828 715 L 831 712 L 832 712 L 834 710 L 835 710 L 837 708 L 838 708 L 840 706 L 841 706 L 842 705 L 843 705 L 844 704 L 845 704 L 847 702 L 848 702 L 849 701 L 850 701 L 851 700 L 852 700 L 853 699 L 854 699 L 855 698 L 857 698 L 858 697 L 860 697 L 861 696 L 862 696 L 863 695 L 865 695 L 866 694 L 868 694 L 869 693 L 871 693 L 872 692 L 875 692 L 876 691 L 879 691 L 880 690 L 885 690 L 886 689 L 892 689 L 893 688 L 899 688 L 900 687 L 901 687 L 902 688 L 902 689 L 900 691 L 899 691 L 894 696 L 894 697 L 886 705 L 886 706 L 885 707 L 885 709 L 886 710 L 886 711 L 887 711 L 888 712 L 890 712 L 891 711 L 892 711 L 893 710 L 893 709 L 912 690 L 913 690 L 918 685 L 918 681 L 917 680 L 917 679 L 916 679 L 915 678 L 914 678 L 913 677 L 912 677 L 911 676 L 910 676 L 909 675 L 908 675 L 907 674 L 906 674 L 905 673 L 904 673 L 903 672 L 902 672 L 901 671 L 900 671 L 898 669 L 897 669 L 896 668 L 895 668 L 894 667 L 893 667 L 892 666 L 891 666 L 890 665 L 889 665 L 888 664 L 887 664 L 886 663 L 885 663 L 884 662 Z" fill="#F57C2C" fill-rule="evenodd"/>
</svg>